<svg xmlns="http://www.w3.org/2000/svg" viewBox="0 0 512 512">
  <defs>
    <linearGradient id="bg" x1="0" y1="0" x2="0" y2="1">
      <stop offset="0%" stop-color="#2b1c58"/>
      <stop offset="100%" stop-color="#160d33"/>
    </linearGradient>
    <linearGradient id="body" x1="0" y1="0" x2="0" y2="1">
      <stop offset="0%" stop-color="#ffe9a8"/>
      <stop offset="55%" stop-color="#ffc44d"/>
      <stop offset="100%" stop-color="#f59e2d"/>
    </linearGradient>
    <linearGradient id="tail" x1="0" y1="0" x2="1" y2="0">
      <stop offset="0%" stop-color="#06d6a0"/>
      <stop offset="50%" stop-color="#4cc9f0"/>
      <stop offset="100%" stop-color="#c77dff"/>
    </linearGradient>
    <radialGradient id="halo" cx="50%" cy="42%" r="55%">
      <stop offset="0%" stop-color="#ffd166" stop-opacity=".28"/>
      <stop offset="100%" stop-color="#ffd166" stop-opacity="0"/>
    </radialGradient>
  </defs>
  <rect width="512" height="512" rx="0" fill="url(#bg)"/>
  <rect width="512" height="512" rx="0" fill="url(#halo)"/>
  <!-- ستاره‌ها -->
  <g fill="#fff">
    <path d="M96 120l7 18 19 2-14 13 4 19-16-10-16 10 4-19-14-13 19-2z" opacity=".9"/>
    <path d="M418 96l5 14 15 1-11 10 3 15-12-8-12 8 3-15-11-10 15-1z" opacity=".75"/>
    <path d="M402 384l4 11 12 1-9 8 2 12-9-6-9 6 2-12-9-8 12-1z" opacity=".6"/>
    <circle cx="132" cy="392" r="5" opacity=".7"/>
    <circle cx="452" cy="228" r="4" opacity=".6"/>
    <circle cx="70" cy="252" r="4" opacity=".55"/>
  </g>
  <!-- سیمرغ کوچولو -->
  <g>
    <!-- دم رنگین -->
    <path d="M150 356c-52 26-62 62-30 76 30 13 56-12 62-40z" fill="url(#tail)" opacity=".92"/>
    <path d="M140 322c-56 6-72 38-46 54 26 15 56-6 64-26z" fill="url(#tail)" opacity=".75"/>
    <!-- بدن -->
    <ellipse cx="272" cy="300" rx="108" ry="96" fill="url(#body)"/>
    <!-- کاکل -->
    <path d="M240 208c12-38 52-38 64 0-13-13-51-13-64 0z" fill="#f59e2d"/>
    <circle cx="272" cy="202" r="11" fill="#ef476f"/>
    <!-- چشم‌ها -->
    <ellipse cx="234" cy="262" rx="27" ry="33" fill="#fff"/>
    <ellipse cx="310" cy="262" rx="27" ry="33" fill="#fff"/>
    <circle cx="238" cy="268" r="13" fill="#2b2140"/>
    <circle cx="314" cy="268" r="13" fill="#2b2140"/>
    <circle cx="242" cy="264" r="4.5" fill="#fff"/>
    <circle cx="318" cy="264" r="4.5" fill="#fff"/>
    <!-- منقار -->
    <path d="M268 306l20 4-10 16z" fill="#fb8500"/>
    <!-- لُپ -->
    <circle cx="206" cy="316" r="16" fill="#ffb2a5" opacity=".7"/>
    <circle cx="338" cy="316" r="16" fill="#ffb2a5" opacity=".7"/>
    <!-- بال‌ها -->
    <path d="M372 268c46-26 68 4 52 36-12 24-42 16-52-4z" fill="#ffd166"/>
    <path d="M172 268c-46-26-68 4-52 36 12 24 42 16 52-4z" fill="#ffd166"/>
    <!-- پنجه -->
    <path d="M252 392c-4 22 8 32 24 26 14-5 12-22 2-30z" fill="#c77dff"/>
  </g>
</svg>
